<?xml version="1.0" encoding="utf-8"?>
<!-- Generator: Adobe Illustrator 26.0.3, SVG Export Plug-In . SVG Version: 6.00 Build 0)  -->
<svg version="1.1" id="레이어_1" xmlns="http://www.w3.org/2000/svg" xmlns:xlink="http://www.w3.org/1999/xlink" x="0px"
	 y="0px" viewBox="0 0 595.28 841.89" style="enable-background:new 0 0 595.28 841.89;" xml:space="preserve">
<g>
	<path d="M360.67,416.58c-3.55-1.69-5.12-3.13-5.99-5.5c-0.16-0.43-0.32-0.96-0.5-1.56c-0.89-2.99-2.38-7.99-7.68-13.77
		c-5.59-6.11-10.56-6.31-11.94-6.21c-1.4,0.08-2.48,0.54-3.02,1.3c-1.16,1.61-0.43,3.69,0.28,5.69c0.28,0.79,0.57,1.61,0.71,2.34
		c0.37,1.99,0.72,8.57-2.5,12.56c-3.42,4.24-3.94,6.79-4.19,8.01l-0.02,0.1c-0.16,0.77,0.04,1.52,0.57,2.11
		c0.76,0.86,2.09,1.25,3.75,1.11c1.21-0.1,1.99-0.37,2.9-0.69c1.05-0.37,2.25-0.79,4.65-1.08c2.03-0.25,4.04,0.34,5.7,1.65
		c1.65,1.3,2.7,3.13,2.93,5.16c0.28,2.36-0.54,3.9-1.27,4.78c-0.79,0.94-1.75,1.48-2.43,1.63c0.64-0.81,0.96-1.89,0.97-3.24
		c0-0.01,0-0.09,0-0.1c-0.15-1.55-0.72-2.73-1.69-3.52c-1.35-1.09-3-1.03-3.65-0.95l-0.14,0.01c-1.01,0.1-3.38,0.34-4.76,4.41
		c-0.69,2.06-0.98,5.29-1.27,8.44c-0.24,2.68-0.46,5.2-0.91,6.68c-0.71,2.38-2.18,2.49-5.17,2.5l-0.39,0
		c-3.21,0.01-6.09,1.64-7.57,3.02c-1.41,1.32-2.45,4-1.61,5.15c0.63,0.85,1.65,0.72,2.39,0.62c0.26-0.04,0.53-0.07,0.74-0.05
		c0.29,0.02,1.13,0.27,1.98,0.52c1.2,0.35,2.7,0.79,4.08,1.03c1.54,0.26,3.06-0.22,4.17-0.75c0.26,2.8,0.92,4.18,2.88,6.14
		c1.25,1.25,2.07,2.34,2.46,3.24l0.04,0.1c0.16,0.34,0.8,1.23,1.84,1.23c0.04,0,0.08,0,0.1-0.01c1.06-0.06,1.89-1,2.51-2.86
		c1.07-3.17,0.86-6.69-0.56-9.43c-0.07-0.14-0.15-0.28-0.26-0.49c-0.82-1.5-1.36-2.49,2.63-5.66c8.56-7.04,11.7-14.7,13.31-19.85
		c1.3-4.16,3.04-4.44,5.74-4.86c0.28-0.04,0.56-0.09,0.85-0.14c3.21-0.56,5.85-1.16,5.64-2.93
		C366.84,421.22,364.51,418.41,360.67,416.58z M337,456.89c0.08,0.15,0.16,0.3,0.24,0.45c0.44,0.84,1.75,3.9,0.43,7.83
		c-0.28,0.82-0.52,1.2-0.65,1.36c-0.19-0.43-0.75-1.71-2.89-3.86c-2-2-2.22-2.95-2.39-6.46c-0.02-0.38-0.25-0.72-0.59-0.88
		c-0.14-0.07-0.29-0.1-0.44-0.1c-0.22,0-0.44,0.07-0.62,0.2c-0.02,0.02-2.21,1.6-4.12,1.27c-1.27-0.22-2.72-0.64-3.9-0.98
		c-1.07-0.31-1.85-0.54-2.35-0.58c-0.43-0.03-0.87,0.02-1.21,0.07c-0.07,0.01-0.2,0.03-0.32,0.04c0.12-0.56,0.56-1.61,1.25-2.25
		c1.21-1.13,3.56-2.46,6.17-2.47l0.39,0c2.93-0.01,5.97-0.01,7.15-3.97c0.5-1.67,0.73-4.29,0.99-7.09c0.27-3.01,0.55-6.13,1.17-7.96
		c0.95-2.81,2.24-2.93,3.01-3.01l0.17-0.02c0.31-0.04,1.35-0.11,2.11,0.51c0.52,0.42,0.83,1.12,0.93,2.04
		c-0.02,2.46-1.55,2.59-1.72,2.6c-0.42,0.01-0.79,0.27-0.94,0.66c-0.15,0.39-0.06,0.83,0.25,1.12c0.13,0.12,1.32,1.19,3.54,0.92
		c1.01-0.12,2.66-0.82,3.98-2.39c0.99-1.19,2.1-3.26,1.73-6.35c-0.3-2.56-1.62-4.88-3.71-6.53c-2.09-1.65-4.66-2.4-7.22-2.08
		c-2.62,0.31-3.99,0.79-5.11,1.18c-0.8,0.28-1.43,0.5-2.37,0.58c-1.43,0.12-1.92-0.29-2.03-0.42c-0.09-0.1-0.12-0.2-0.09-0.32
		l0.02-0.11c0.22-1.06,0.67-3.28,3.78-7.12c3.73-4.62,3.38-11.85,2.92-14.24c-0.16-0.87-0.48-1.77-0.79-2.65
		c-0.51-1.43-1.08-3.06-0.55-3.79c0.11-0.15,0.6-0.4,1.47-0.45c2.38-0.14,6.36,1.25,10.3,5.54c4.97,5.43,6.32,9.96,7.23,13
		l0.02,0.08c0.18,0.6,0.33,1.11,0.5,1.57c1.07,2.92,2.98,4.72,7.04,6.65c2.93,1.39,4.49,3.19,5,3.99c-0.41,0.18-1.41,0.52-3.78,0.93
		c-0.19,0.03-0.38,0.06-0.56,0.09l-0.32,0.05c-2.77,0.43-5.64,0.88-7.33,6.27c-1.53,4.9-4.51,12.18-12.64,18.86
		C335.21,452.56,335.77,454.62,337,456.89z"/>
	<path d="M338.52,395.3c-1.08-0.08-2.02,0.26-2.61,0.92c-0.88,0.97-0.6,1.91,0,3.96c0.17,0.57,0.33,1.13,0.52,1.83
		c0.62,2.26,1.93,3.4,2.92,3.97c0.75,0.43,1.63,0.67,2.4,0.67c0.29,0,0.56-0.03,0.8-0.1c0.85-0.24,1.63-1.08,2.04-2.21
		c0.37-1.04,0.73-3.16-1.08-5.74C341.6,395.88,339.56,395.37,338.52,395.3z M337.44,397.6c0.09-0.11,0.39-0.27,0.95-0.24
		c0.54,0.03,1.96,0.33,3.41,2.42c1.27,1.82,1.06,3.2,0.83,3.86c-0.22,0.61-0.56,0.89-0.64,0.92c-0.26,0.08-0.91,0.03-1.63-0.38
		c-0.65-0.37-1.51-1.14-1.94-2.72c-0.2-0.74-0.38-1.36-0.53-1.86C337.61,398.63,337.34,397.72,337.44,397.6z"/>
	<path d="M272.18,459.64c0.67-1.87-0.6-3.66-1.84-5.39l-0.24,0.16l0,0l0.24-0.17c-0.49-0.69-1-1.4-1.32-2.05
		c-0.91-1.81-3.06-8.03-1.06-12.76c2.12-5.02,1.92-7.61,1.82-8.86l-0.01-0.1c-0.06-0.78-0.46-1.45-1.13-1.88
		c-0.96-0.61-2.35-0.62-3.91-0.04c-1.14,0.43-1.81,0.91-2.6,1.47c-0.91,0.65-1.95,1.38-4.17,2.31c-1.79,0.75-3.92,0.76-5.84,0.01
		c-1.99-0.78-3.53-2.26-4.34-4.17c-0.94-2.25-0.55-3.98-0.06-5.03c0.53-1.12,1.33-1.85,1.85-2.15c-0.39,0.95-0.4,2.09-0.03,3.4
		c0,0.01,0.02,0.07,0.03,0.08c0.57,1.45,1.44,2.43,2.6,2.92c1.6,0.67,3.17,0.16,3.77-0.09l0.13-0.05c0.94-0.37,3.16-1.25,3.36-5.55
		c0.1-2.17-0.51-5.35-1.11-8.46c-0.51-2.64-0.99-5.12-0.97-6.68c0.03-2.49,1.41-2.99,4.28-3.83l0.38-0.11
		c3.09-0.9,5.4-3.25,6.45-4.99c0.99-1.66,1.25-4.53,0.13-5.39c-0.84-0.65-1.77-0.24-2.46,0.05c-0.23,0.1-0.51,0.22-0.72,0.26
		c-0.29,0.06-1.17,0.06-1.95,0.05h-0.09c-1.25-0.01-2.82-0.01-4.21,0.14c-1.56,0.17-2.89,1.05-3.81,1.87
		c-1.02-2.62-2.04-3.76-4.46-5.11c-1.54-0.86-2.64-1.67-3.26-2.43c0,0-0.07-0.09-0.08-0.09c-0.24-0.28-1.17-1-2.2-0.64
		c-1,0.35-1.53,1.48-1.62,3.44c-0.15,3.34,1.02,6.67,3.14,8.92c0.1,0.11,0.2,0.21,0.31,0.32l0.08,0.08c1.2,1.22,1.99,2.02-0.96,6.17
		c-6.29,9.12-7.19,17.35-7.32,22.75c-0.11,4.37-1.7,5.11-4.13,6.23c-0.27,0.13-0.55,0.26-0.83,0.39c-2.93,1.42-5.3,2.73-4.61,4.38
		c0.48,1.16,3.5,3.22,7.69,3.91c3.88,0.64,5.78,1.59,7.27,3.63c0.28,0.38,0.58,0.86,0.91,1.36c1.68,2.63,4.49,7.02,11.18,11.12
		c4.29,2.63,7.73,3.18,9.87,3.18c1.64,0,2.79-0.31,3.32-0.5C270.96,461.26,271.86,460.52,272.18,459.64z M248.72,397.66l-0.03-0.03
		c-0.11-0.11-0.21-0.22-0.32-0.33c-0.65-0.69-2.76-3.27-2.58-7.41c0.04-0.86,0.17-1.29,0.25-1.49c0.3,0.36,1.19,1.44,3.84,2.92
		c2.47,1.37,2.94,2.22,4.08,5.55c0.12,0.36,0.43,0.63,0.82,0.69c0.38,0.05,0.76-0.1,0.99-0.4c0.02-0.02,1.65-2.14,3.61-2.35
		c1.3-0.15,2.82-0.13,4.05-0.13c1.1,0,1.9,0.01,2.39-0.09c0.42-0.09,0.81-0.26,1.13-0.4c0.06-0.03,0.18-0.08,0.31-0.13
		c0.04,0.55-0.07,1.66-0.58,2.51c-0.85,1.42-2.74,3.34-5.25,4.07l-0.37,0.11c-2.82,0.82-5.73,1.66-5.78,5.79
		c-0.02,1.75,0.48,4.34,1.01,7.09c0.57,2.97,1.16,6.04,1.07,7.97c-0.14,2.96-1.34,3.44-2.06,3.72l-0.16,0.06
		c-0.28,0.12-1.27,0.48-2.17,0.1c-0.62-0.26-1.11-0.84-1.45-1.7c-0.66-2.36,0.77-2.92,0.93-2.97c0.4-0.12,0.68-0.47,0.72-0.89
		c0.04-0.42-0.17-0.81-0.55-1.01c-0.16-0.08-1.59-0.78-3.66,0.09c-0.93,0.39-2.31,1.51-3.15,3.4c-0.63,1.42-1.13,3.72,0.07,6.57
		c1.02,2.43,2.97,4.32,5.49,5.3c2.41,0.94,5.1,0.93,7.38-0.03c2.44-1.02,3.63-1.87,4.58-2.55c0.69-0.49,1.24-0.88,2.12-1.21
		c1.34-0.51,1.92-0.25,2.07-0.15c0.12,0.07,0.17,0.16,0.18,0.29l0.01,0.1c0.09,1.08,0.26,3.33-1.67,7.89
		c-2.31,5.48,0.02,12.32,1.12,14.5c0.4,0.8,0.95,1.57,1.49,2.33c0.88,1.24,1.88,2.64,1.57,3.49c-0.06,0.17-0.46,0.55-1.29,0.84
		c-2.26,0.79-6.45,0.56-11.42-2.49c-6.28-3.85-8.83-7.83-10.52-10.47c-0.34-0.54-0.67-1.04-0.98-1.47c-1.83-2.51-4.16-3.72-8.6-4.45
		c-3.2-0.53-5.2-1.83-5.9-2.45c0.34-0.29,1.22-0.89,3.38-1.94c0.25-0.12,0.49-0.23,0.73-0.34l0.08-0.04
		c2.55-1.18,5.18-2.4,5.31-8.05c0.12-5.13,0.98-12.95,6.95-21.61C251.64,401.33,250.54,399.51,248.72,397.66z"/>
	<path d="M258.55,455.49c1.94,1.57,3.61,1.9,4.66,1.9c0.36,0,0.71-0.04,1.04-0.11c1.04-0.23,1.87-0.81,2.25-1.59v0c0,0,0,0,0-0.01
		c0.57-1.17,0.05-2-1.09-3.81c-0.3-0.48-0.63-0.99-1-1.61c-1.22-2.01-2.79-2.74-3.89-3.01c-1.17-0.29-2.44-0.15-3.23,0.33
		c-0.75,0.46-1.27,1.49-1.35,2.69C255.86,451.36,256.11,453.51,258.55,455.49z M257.99,450.4c0.04-0.64,0.3-1.01,0.37-1.06
		c0.14-0.09,0.45-0.18,0.89-0.18c0.26,0,0.52,0.03,0.78,0.09c0.72,0.18,1.76,0.68,2.62,2.07c0.41,0.67,0.76,1.23,1.02,1.64
		c0.54,0.86,1.05,1.66,0.98,1.8c-0.06,0.13-0.31,0.37-0.84,0.49c-0.53,0.12-1.98,0.22-3.95-1.38
		C258.13,452.49,257.95,451.1,257.99,450.4z"/>
	<path d="M287.22,386.94c-1.43,0-2.77,0.95-3.26,2.32c-0.4,1.12-0.54,3.42,2.95,6.27c1.26,1.03,3.14,1.71,5.46,1.99
		c0.01,0.3,0.01,0.6,0,0.91c-2.71,0.28-4.52,0.91-5.54,1.91c-0.66,0.65-0.99,1.43-0.99,2.33c0,2.39,1.88,4.1,5.44,4.97l-0.04,0.19
		c-0.13,0.66-0.27,1.33-0.42,2c-2.48-0.23-5.8-0.01-7.3,3.67c-0.99,2.43,0.25,5.67,3.59,9.36c-6.41,18.11-15.27,27.77-16.2,28.77
		c-0.09,0.05-0.16,0.12-0.24,0.21c-0.47,0.55-0.27,1.05-0.16,1.24c0.18,0.33,0.53,0.53,0.9,0.53c0.05,0,0.1,0,0.16-0.01
		c0.25-0.04,0.66-0.11,3.16-3.28c1.38-1.75,3.51-4.67,5.87-8.63c3.14-5.28,5.86-11.06,8.1-17.18c3.31,3.2,7.86,6.43,12.26,8.69
		c15.94,8.2,27.02,12.02,27.12,12.05c0.54,0.19,1.13-0.11,1.31-0.65c0.18-0.54-0.11-1.13-0.64-1.31
		c-0.44-0.15-11.05-3.81-26.84-11.93c-4.6-2.37-9.24-5.72-12.45-8.99c1.14-3.33,2.14-6.77,2.96-10.24c0.44,0.08,0.89,0.16,1.33,0.25
		l0.06-0.29v0l0.04,0.3c0.61,0.12,1.24,0.24,1.82,0.33c7.46,1.14,16.26-0.11,17.96-5.53c0.5-1.58,0.29-3.03-0.62-4.29
		c-0.3-0.42-0.68-0.82-1.14-1.18c0.32-0.65,0.47-1.32,0.43-1.99c-0.12-2.15-2.01-3.83-4.01-5.62l-0.31-0.28
		c1.7-1.18,2.99-2.59,3.74-4.06c0.83-1.5,0.8-3-0.09-4.22c-1.06-1.47-3.21-2.23-5.24-1.86c-1.96,0.36-3.38,1.68-3.9,3.63
		c-0.69,2.58,0.69,4.6,2.09,6.1c-1.47,0.7-3.11,1.25-4.91,1.63c-1.8,0.38-3.63,0.55-5.32,0.53c-0.27-2.75-1.01-4.89-2.22-6.36
		C290.88,387.71,289.23,386.94,287.22,386.94z M290.36,411.86c-0.71,2.97-1.55,5.91-2.49,8.76c-2.2-2.67-3.05-4.85-2.44-6.34
		c0.69-1.69,1.98-2.45,4.16-2.45C289.84,411.83,290.09,411.84,290.36,411.86z M306.12,394.94c0.25,0.23,0.5,0.46,0.79,0.71
		c1.67,1.49,3.25,2.9,3.32,4.2c0.01,0.25-0.03,0.5-0.13,0.76c-4.29-2.14-10.99-2.33-11.75-2.35c-0.63-0.01-1.19-0.02-1.73-0.02
		c-0.78,0-1.49,0.01-2.17,0.04c0-0.22,0-0.43,0-0.64c1.81,0.02,3.75-0.18,5.64-0.58C302.31,396.59,304.34,395.88,306.12,394.94z
		 M298.3,400.33c3.15,0.06,7.47,0.61,10.45,1.95c-2.58,2.16-7.87,3.88-12.09,3.88c-1.03,0-2.03-0.06-2.97-0.18
		c0.34-2.02,0.57-3.91,0.68-5.62C295.98,400.28,297.48,400.31,298.3,400.33z M310.61,403.38c0.29,0.24,0.52,0.48,0.7,0.74
		c0.52,0.72,0.62,1.52,0.33,2.47c-1.26,4.02-9.03,5.12-15.68,4.1c-0.55-0.08-1.16-0.2-1.78-0.32c-0.42-0.08-0.86-0.17-1.31-0.25
		c0.14-0.62,0.27-1.25,0.4-1.88l0.04-0.22c1.06,0.14,2.18,0.21,3.35,0.21C301.06,408.22,307.56,406.38,310.61,403.38z
		 M306.43,392.38c-1.26-1.28-2.42-2.8-1.96-4.54c0.41-1.56,1.6-2,2.27-2.13c0.22-0.04,0.44-0.06,0.67-0.06
		c1.05,0,2.04,0.43,2.52,1.09c0.4,0.55,0.38,1.24-0.06,2.04c0,0,0,0.01-0.01,0.01C309.22,390.11,308.03,391.34,306.43,392.38z
		 M287.91,402.67c0-0.34,0.12-0.6,0.37-0.86c0.63-0.62,1.98-1.05,4-1.29c-0.11,1.55-0.32,3.26-0.63,5.08
		C289.24,404.98,287.91,403.95,287.91,402.67z M288.22,393.93c-1.81-1.47-2.67-2.96-2.3-3.97c0.21-0.59,0.83-0.94,1.31-0.94
		c0.51,0,2.05,0,3.3,1.52c0.88,1.08,1.46,2.72,1.72,4.88C290.49,395.16,289.11,394.65,288.22,393.93z"/>
	<path d="M290.09,459.62c-0.66-1.27-1.57-2.39-2.72-3.33c-1.15-0.94-2.44-1.59-3.85-1.93c-1.77-0.41-3.16-0.28-4.11,0.36
		c-0.85,0.59-1.34,1.59-1.46,2.97c-0.07,0.75,0,1.9,0.21,3.41c0.24,1.69,0.37,2.72,0.39,3.06c0.03,0.64-0.01,1.29-0.13,1.95
		c-0.11,0.65-0.32,1.3-0.61,1.92c-0.28,0.59-0.62,1.06-1.02,1.37c-0.34,0.27-0.72,0.43-1.1,0.5c-0.38,0.07-0.72,0.03-1.03-0.11
		c-0.47-0.21-0.83-0.46-1.08-0.77c0.29,0.2,0.63,0.3,1.04,0.3c0.76,0,1.52-0.33,2.27-0.99c0.83-0.75,1.23-1.56,1.18-2.42
		c-0.07-1.08-0.83-1.84-2.27-2.27c-0.99-0.29-1.91-0.14-2.75,0.45c-0.8,0.57-1.37,1.34-1.69,2.3c-0.33,1.01-0.3,2.02,0.09,3
		c0.41,0.99,1.21,1.76,2.37,2.28c0.67,0.3,1.4,0.39,2.14,0.24c0.68-0.13,1.3-0.4,1.87-0.82c-0.01,0.3,0.05,0.59,0.17,0.88
		c0.29,0.62,0.89,1.14,1.77,1.53c0.63,0.29,1.34,0.49,2.12,0.62c0.53,0.08,0.99,0.11,1.37,0.11c0.17,0,0.33-0.01,0.46-0.02
		c1.13-0.12,2.26-0.49,3.35-1.1c1.79-0.99,3.06-2.61,3.77-4.81c0.47-1.45,0.63-2.96,0.46-4.49
		C291.17,462.3,290.75,460.89,290.09,459.62z M280.15,470.58c0.38-0.43,0.92-0.72,1.6-0.86c0.33-0.07,0.66-0.11,0.96-0.11
		c0.33,0,0.65,0.04,0.93,0.12c0.26,0.08,0.39,0.16,0.45,0.2c-0.07,0.09-0.26,0.29-0.8,0.62c-0.22,0.14-0.37,0.35-0.44,0.6
		c-0.08,0.26-0.05,0.53,0.09,0.78c0.07,0.12,0.15,0.22,0.25,0.3c-0.23-0.01-0.53-0.04-0.96-0.11c-0.6-0.09-1.14-0.25-1.62-0.47
		c-0.56-0.24-0.72-0.44-0.76-0.54C279.84,471.07,279.86,470.9,280.15,470.58z M286.12,469.63c-0.07-0.61-0.45-1.43-1.87-1.86
		c-0.47-0.13-0.96-0.2-1.48-0.2c-0.45,0-0.93,0.05-1.42,0.15c-0.54,0.11-1.03,0.29-1.47,0.54c0.25-0.63,0.42-1.25,0.52-1.87
		c0.13-0.82,0.17-1.63,0.12-2.39c-0.01-0.41-0.15-1.47-0.4-3.25c-0.19-1.29-0.26-2.27-0.2-2.92c0.06-0.71,0.26-1.2,0.58-1.42
		c0.47-0.32,1.34-0.34,2.52-0.06c1.13,0.27,2.17,0.79,3.09,1.56c0.93,0.78,1.68,1.69,2.22,2.71c0.55,1.03,0.9,2.18,1.04,3.43
		c0.13,1.24,0,2.47-0.4,3.67c-0.54,1.67-1.48,2.89-2.8,3.62c-0.45,0.25-0.91,0.45-1.36,0.59
		C285.75,471.23,286.2,470.45,286.12,469.63z M275.23,465.62c0.68,0.19,0.87,0.4,0.88,0.48c0.01,0.1-0.05,0.33-0.47,0.71
		c-0.27,0.24-0.53,0.4-0.76,0.46c0.02-0.27-0.07-0.51-0.24-0.7c-0.18-0.2-0.42-0.32-0.68-0.34c-0.03,0-0.05,0-0.08,0
		c-0.07,0-0.13,0.01-0.2,0.02c0.13-0.17,0.28-0.31,0.45-0.42C274.49,465.57,274.85,465.51,275.23,465.62z"/>
	<path d="M296.76,468.38c-0.27-1.24-0.4-2.17-0.4-2.76c0.01-0.66,0.17-1.13,0.42-1.33c0.02-0.01,0.06-0.04,0.08-0.06
		c0.18-0.18,0.29-0.4,0.33-0.66c0.04-0.28-0.03-0.54-0.2-0.76c-0.16-0.21-0.39-0.34-0.65-0.38c-0.28-0.04-0.54,0.03-0.78,0.22
		c-0.75,0.65-1.15,1.64-1.19,2.94c-0.01,0.81,0.14,1.9,0.45,3.25c0.57,2.69,0.64,3.01,0.66,3.08c0.2,1.17,0.14,1.72,0.05,1.98
		c-0.13,0.39-0.3,0.72-0.48,0.95c-0.17,0.21-0.34,0.35-0.5,0.41c-0.18,0.06-0.34,0.09-0.49,0.08c-0.13-0.01-0.25-0.04-0.37-0.13
		c-0.08-0.04-0.18-0.11-0.17-0.16c0.01-0.08,0.13-0.36,1.05-0.74c0.23-0.12,0.4-0.3,0.5-0.55c0.1-0.25,0.1-0.52,0.01-0.77
		c-0.1-0.26-0.28-0.45-0.52-0.57c-0.25-0.11-0.5-0.12-0.78-0.02c-1.29,0.56-2.03,1.32-2.21,2.28c-0.08,0.48-0.01,0.94,0.23,1.35
		c0.22,0.39,0.53,0.71,0.91,0.95c0.38,0.23,0.8,0.36,1.24,0.39c0.06,0.01,0.11,0.01,0.17,0.01c0.38,0,0.78-0.08,1.16-0.24
		c0.44-0.18,0.86-0.5,1.24-0.95c0.37-0.44,0.66-0.99,0.88-1.64c0.24-0.71,0.25-1.71,0.02-2.97
		C297.42,471.46,297.33,471,296.76,468.38z"/>
	<path d="M295.06,459.95c-0.2,0.19-0.31,0.42-0.32,0.69c-0.02,0.27,0.07,0.52,0.24,0.73c0.18,0.22,0.42,0.34,0.74,0.36
		c0.25,0,0.48-0.09,0.67-0.28c0.2-0.19,0.31-0.42,0.32-0.69c0.02-0.27-0.07-0.52-0.24-0.73c-0.18-0.21-0.42-0.33-0.68-0.35
		C295.52,459.65,295.27,459.75,295.06,459.95z"/>
	<path d="M310.61,463.45c-0.21-0.19-0.47-0.29-0.73-0.26c-0.28,0.02-0.51,0.14-0.69,0.35c-0.17,0.21-0.25,0.46-0.23,0.72
		c0.07,1.15-0.03,2.28-0.32,3.39c-0.16,0.64-0.61,1.99-1.34,4.03l-0.91,2.4l-1.45-1.29c-1.36-1.24-2.34-2.3-2.92-3.15
		c0.11,0.07,0.22,0.12,0.33,0.16c0.48,0.2,0.98,0.17,1.5-0.09c0.73-0.38,1.28-1.07,1.65-2.03c0.42-1.08,0.41-2.03-0.02-2.83
		c-0.56-1.03-1.62-1.47-3.13-1.28c-0.44,0.06-0.8,0.14-1.08,0.25c-0.31,0.12-0.61,0.35-0.9,0.69c-1.46,1.66-1.56,3.61-0.29,5.78
		c0.63,1.08,1.83,2.43,3.57,4.03l1.26,1.14c0.34,0.3,0.61,0.52,0.79,0.66c0.15,0.13,0.28,0.23,0.34,0.26
		c0.06,0.04,0.14,0.1,0.26,0.17c0.01,0.01,0.06,0.03,0.07,0.03c0.07,0.02,0.16,0.04,0.34,0.05c0.09,0,0.17-0.01,0.3-0.03
		c0.24-0.07,0.45-0.23,0.62-0.49c0.05-0.08,0.12-0.19,0.21-0.35c0.09-0.19,0.22-0.48,0.38-0.87c0.25-0.6,0.55-1.41,0.94-2.46
		c0.75-2.1,1.23-3.52,1.41-4.23c0.33-1.32,0.46-2.68,0.37-4.05C310.92,463.88,310.8,463.63,310.61,463.45L310.61,463.45z
		 M301.21,467.64c-0.04-0.63,0.17-1.2,0.62-1.72c0.13-0.14,0.22-0.2,0.26-0.21c0.02-0.01,0.14-0.05,0.51-0.1
		c0.61-0.08,1.02,0.01,1.14,0.23c0.12,0.23,0.09,0.6-0.08,1.06c-0.18,0.48-0.41,0.81-0.67,0.96c-0.01-0.02-0.03-0.04-0.04-0.06
		c-0.01-0.03-0.03-0.07-0.04-0.09c-0.14-0.24-0.34-0.4-0.58-0.48c-0.1-0.03-0.2-0.05-0.3-0.05c-0.16,0-0.32,0.04-0.48,0.13
		C301.42,467.39,301.3,467.5,301.21,467.64z M306.43,476.29L306.43,476.29L306.43,476.29L306.43,476.29z"/>
	<path d="M326.22,466.9c-0.29-0.04-0.55,0.04-0.74,0.21c-0.21,0.17-0.57,0.47-1.08,0.91c-0.49,0.42-0.86,0.74-1.1,0.93l-1.04,0.79
		c-0.43,0.31-0.8,0.54-1.1,0.69c-0.31,0.15-0.69,0.31-1.11,0.49c-0.39,0.16-0.78,0.26-1.16,0.3c-0.39,0.04-0.81,0.03-1.24-0.02
		c-0.64-0.08-1.19-0.27-1.64-0.59c-0.44-0.3-0.77-0.69-0.98-1.14c-0.22-0.48-0.37-1.03-0.44-1.63c-0.09-0.92,0.02-1.88,0.33-2.85
		c0.31-0.96,0.75-1.77,1.32-2.38c0.48-0.49,1.05-0.85,1.7-1.07c0.64-0.22,1.26-0.28,1.84-0.19c0.36,0.07,0.68,0.19,0.94,0.37
		c0.25,0.18,0.47,0.45,0.64,0.81c0.18,0.37,0.26,0.83,0.25,1.36c-0.02,0.48-0.17,1.03-0.44,1.64c-0.27,0.6-0.64,1.13-1.09,1.57
		c-0.14,0.14-0.27,0.26-0.4,0.36c0.73-1.22,1-2.25,0.8-3.06c-0.13-0.53-0.42-0.92-0.86-1.15c-0.41-0.22-0.85-0.29-1.3-0.24
		c-0.81,0.07-1.56,0.44-2.25,1.12c-0.7,0.7-1.03,1.56-0.97,2.56c0,0.44,0.14,0.91,0.4,1.41c0.26,0.49,0.58,0.87,0.95,1.13
		c0.59,0.43,1.22,0.66,1.87,0.7c0.65,0.05,1.23-0.07,1.76-0.32c0.5-0.24,0.98-0.57,1.44-1.02c0.61-0.62,1.1-1.35,1.49-2.17
		c0.38-0.84,0.57-1.66,0.59-2.43c0.02-0.9-0.13-1.69-0.45-2.35c-0.33-0.64-0.76-1.16-1.27-1.54c-0.52-0.37-1.12-0.63-1.8-0.74
		c-0.92-0.15-1.87-0.07-2.82,0.26c-0.95,0.33-1.77,0.86-2.45,1.59c-0.77,0.84-1.36,1.88-1.75,3.12c-0.4,1.23-0.54,2.47-0.43,3.68
		c0.06,0.64,0.21,1.26,0.42,1.83c0.22,0.58,0.53,1.11,0.91,1.58c0.39,0.48,0.91,0.89,1.52,1.2c0.6,0.32,1.28,0.53,2.04,0.62
		c0.31,0.04,0.61,0.05,0.91,0.05c0.24,0,0.48-0.01,0.72-0.03c0.54-0.06,1.09-0.19,1.61-0.4c0.49-0.2,0.94-0.39,1.33-0.58
		c0.41-0.2,0.87-0.48,1.37-0.86c0.48-0.36,0.87-0.66,1.13-0.87c0.27-0.21,0.66-0.53,1.17-0.96l0.98-0.86
		c0.22-0.16,0.35-0.4,0.38-0.69c0.03-0.27-0.05-0.53-0.22-0.75C326.71,467.07,326.49,466.94,326.22,466.9z M317.91,466.51
		c-0.16,0.22-0.21,0.48-0.16,0.76c0.05,0.24,0.17,0.45,0.36,0.61c-0.22-0.07-0.4-0.18-0.56-0.29c-0.07-0.05-0.18-0.16-0.3-0.41
		c-0.11-0.2-0.17-0.39-0.18-0.55c-0.02-0.38,0.12-0.72,0.44-1.04c0.33-0.33,0.68-0.52,1.05-0.56
		C318.54,465.25,318.42,465.69,317.91,466.51z"/>
	<path d="M262.79,382.71C262.79,382.71,262.79,382.71,262.79,382.71c1.03,0,2.6-0.37,4.68-1.1c0.06-0.03,0.25-0.09,0.59-0.21
		l1.3-0.44c0.27-0.1,0.46-0.17,0.59-0.2c0.16-0.04,0.35-0.09,0.57-0.16c0.21-0.06,0.39-0.11,0.55-0.13l0.51-0.09
		c1.03-0.14,1.73,0.08,2.07,0.64c0.42,0.72,0.49,1.58,0.19,2.57c-0.31,1.03-0.93,2.01-1.83,2.91c-0.91,0.91-1.91,1.53-2.99,1.84
		c-1.03,0.3-1.98,0.22-2.8-0.23c-0.39-0.25-0.67-0.55-0.84-0.88c-0.16-0.32-0.2-0.66-0.13-1.02c0.09-0.4,0.24-0.78,0.47-1.12
		c0.21-0.33,0.52-0.59,0.92-0.79c0.39-0.19,0.81-0.31,1.31-0.27c0.39,0.02,0.64,0.17,0.8,0.51c0.03,0.06,0.03,0.08,0.03,0.08
		c0,0.01-0.03,0.08-0.18,0.17c-0.26,0.16-0.43,0.38-0.5,0.66c-0.07,0.27-0.04,0.54,0.1,0.78c0.15,0.26,0.39,0.42,0.69,0.46
		c0.26,0.04,0.52-0.02,0.77-0.17c0.59-0.38,0.98-0.87,1.17-1.46c0.15-0.54,0.09-1.08-0.18-1.6c-0.22-0.41-0.55-0.76-0.98-1.04
		c-0.43-0.28-0.92-0.44-1.44-0.46c-0.63-0.05-1.25,0.03-1.83,0.22c-0.58,0.2-1.08,0.48-1.49,0.85c-0.4,0.35-0.76,0.76-1.06,1.22
		c-0.31,0.47-0.52,0.97-0.62,1.49c-0.1,0.5-0.12,1.01-0.06,1.52c0.06,0.54,0.27,1.04,0.61,1.5c0.33,0.43,0.75,0.81,1.27,1.13
		c0.69,0.4,1.45,0.63,2.25,0.69c0.15,0.01,0.3,0.02,0.45,0.02c0.63,0,1.24-0.1,1.83-0.29c0.7-0.23,1.39-0.56,2.07-0.96
		c0.69-0.41,1.3-0.9,1.83-1.46c1.15-1.14,1.97-2.45,2.42-3.91c0.47-1.51,0.34-2.88-0.39-4.09c-0.79-1.29-2.16-1.81-4.07-1.56
		c-0.21,0.03-0.41,0.07-0.62,0.11c-0.21,0.04-0.44,0.1-0.68,0.18l-0.65,0.18c-0.17,0.05-0.42,0.12-0.73,0.23l-1.28,0.47l-0.65,0.21
		c-1.79,0.63-3.09,0.95-3.89,0.95c-0.91,0-1.47-0.41-1.76-1.28c-0.14-0.44-0.18-0.95-0.13-1.53c0.06-0.63,0.21-1.23,0.43-1.79
		c0.31-0.78,0.93-1.6,1.84-2.45c0.93-0.86,1.92-1.51,2.95-1.95c0.97-0.42,1.75-0.55,2.3-0.39c0.51,0.16,0.81,0.66,0.89,1.48
		c0.01,0.17-0.03,0.53-0.27,1.3c-0.23,0.71-0.52,1.37-0.87,1.97c-0.37,0.62-0.73,1.04-1.07,1.25c-0.17,0.11-0.26,0.09-0.36,0.02
		c-0.12-0.09-0.23-0.19-0.32-0.32c-0.1-0.12-0.18-0.24-0.21-0.29l-0.26-0.63c-0.13-0.27-0.22-0.46-0.29-0.64
		c-0.13-0.23-0.35-0.39-0.61-0.47c-0.27-0.08-0.54-0.04-0.8,0.09c-0.24,0.13-0.42,0.33-0.53,0.59c-0.11,0.28-0.11,0.55,0.03,0.85
		c0.01,0.02,0.06,0.12,0.21,0.47c0.14,0.33,0.25,0.58,0.35,0.74c0.09,0.16,0.23,0.36,0.41,0.62c0.21,0.28,0.44,0.51,0.69,0.68
		c0.87,0.62,1.83,0.61,2.79-0.02c0.63-0.41,1.23-1.1,1.78-2.03c0.44-0.74,0.8-1.54,1.08-2.4c0.29-0.88,0.41-1.59,0.36-2.09
		c-0.15-1.67-0.92-2.76-2.24-3.14c-1.06-0.33-2.35-0.19-3.82,0.45c-1.22,0.5-2.43,1.31-3.6,2.38c-1.18,1.08-2,2.2-2.43,3.32
		c-0.27,0.72-0.46,1.51-0.56,2.36c-0.09,0.85-0.01,1.62,0.22,2.3C259.71,381.8,260.97,382.71,262.79,382.71z"/>
	<path d="M276.7,377.51l0.71,0.6l0.81,0.6l1.41,0.93c0.49,0.32,0.57,0.36,0.6,0.37c0,0,0.03,0.02,0.13,0.11l0.33,0.27
		c0.35,0.27,0.66,0.49,0.93,0.65c0.48,0.27,0.94,0.42,1.37,0.44c0.05,0,0.09,0.01,0.14,0.01c0.66,0,1.22-0.26,1.65-0.75
		c0.16-0.17,0.25-0.34,0.27-0.5c0-0.02,0.01-0.05,0.01-0.08c0.01-0.03,0-0.09,0-0.15c0-0.03,0-0.08,0-0.11l-0.01-0.67l-0.04-0.54
		c0-0.07,0-0.11,0-0.14c0.01-0.03,0.02-0.06,0.02-0.08c0.05-0.72,0.11-1.52,0.19-2.38l0.74,0.76c0.79,0.78,1.47,1.4,2.03,1.84
		c0.34,0.29,0.67,0.51,0.94,0.65c0.45,0.27,0.88,0.37,1.27,0.34c0.57-0.08,1.05-0.39,1.36-0.89c0.21-0.27,0.37-0.63,0.49-1.07
		c0.07-0.28,0.13-0.58,0.19-0.94c0-0.04,0.01-0.09,0.03-0.16c0.02-0.09,0.03-0.16,0.01-0.16c0.02-0.03,0.04-0.1,0.05-0.13
		c0.76-3.62,0.66-7.13-0.3-10.46c-0.08-0.28-0.28-0.5-0.57-0.64c-0.27-0.12-0.56-0.15-0.85-0.07c-0.29,0.09-0.52,0.26-0.68,0.51
		c-0.17,0.27-0.21,0.56-0.13,0.84c0.87,2.98,0.95,6.17,0.24,9.5l-0.07,0.59c-0.04,0.25-0.08,0.46-0.14,0.65
		c-0.1-0.07-0.2-0.15-0.31-0.24c-0.49-0.38-1.11-0.95-1.84-1.68l-1.71-1.76l-0.55-0.6l-0.22-0.21c-0.02-0.02-0.04-0.03-0.06-0.05
		c0,0-0.01-0.01-0.01-0.01c-0.05-0.05-0.1-0.09-0.17-0.13l-0.11-0.05c-0.18-0.09-0.37-0.13-0.63-0.11
		c-0.54,0.08-0.93,0.38-1.12,0.88c-0.06,0.19-0.08,0.41-0.05,0.7l0.3,0l-0.28,0.11l0.3,0.01l-0.29,0.08
		c-0.16,1.65-0.28,3.07-0.35,4.2c-0.01,0.07,0,0.22,0.01,0.42l0.01,0.25c-0.15-0.1-0.33-0.22-0.52-0.38l-0.31-0.25
		c-0.13-0.11-0.24-0.19-0.35-0.27c-0.02-0.01-0.12-0.07-0.54-0.36l-1.35-0.92c-0.3-0.2-0.55-0.37-0.74-0.51l-0.64-0.52
		c-0.24-0.2-0.45-0.39-0.64-0.57c-1.26-1.22-1.73-2.27-1.4-3.13c0.04-0.1,0.13-0.28,0.35-0.59c0.23-0.32,0.35-0.42,0.39-0.45
		c1.04-0.69,1.36-0.57,1.36-0.57c0.1,0.05,0.16,0.23,0.16,0.5c0.01,0.18-0.01,0.41-0.1,0.57c-0.04-0.03-0.08-0.06-0.14-0.11
		c-0.24-0.18-0.52-0.26-0.82-0.24c-0.3,0.02-0.57,0.14-0.79,0.35c-0.22,0.22-0.34,0.49-0.34,0.78c0,0.3,0.13,0.57,0.36,0.78
		c0.5,0.4,1.03,0.63,1.58,0.66c0.57,0.01,1.12-0.16,1.55-0.55c0.67-0.58,1-1.38,0.99-2.41c-0.04-1.11-0.53-1.9-1.43-2.29
		c-1-0.44-2.24-0.19-3.69,0.75c-0.35,0.24-0.68,0.59-0.99,1.02c-0.3,0.42-0.52,0.8-0.66,1.13c-0.64,1.7-0.01,3.48,1.89,5.31
		C276.16,377.05,276.42,377.27,276.7,377.51z M283.34,374.08L283.34,374.08L283.34,374.08L283.34,374.08z"/>
	<path d="M296.09,377.34c0.83,0.78,1.79,1.3,2.87,1.56c0.59,0.14,1.19,0.22,1.76,0.22c0.45,0,0.9-0.05,1.34-0.13
		c0.98-0.2,1.9-0.58,2.74-1.12c0.83-0.55,1.52-1.23,2.05-2.02c0.53-0.81,0.85-1.71,0.95-2.68c0.1-0.99-0.12-2.02-0.67-3.05
		c-0.73-1.43-1.98-2.36-3.7-2.76c-1.63-0.39-3.01-0.04-4.11,1.06c-0.86,0.87-1.31,1.93-1.34,3.17c-0.02,0.6,0.1,1.16,0.37,1.68
		c0.3,0.56,0.78,0.94,1.45,1.11c1.22,0.31,2.64-0.3,4.22-1.81c0.24-0.22,0.35-0.5,0.33-0.8c-0.02-0.29-0.16-0.54-0.4-0.75
		c-0.24-0.2-0.51-0.3-0.81-0.28c-0.3,0.01-0.57,0.13-0.78,0.33c-0.4,0.38-0.78,0.68-1.11,0.89c-0.46,0.29-0.61,0.33-0.65,0.33
		c-0.05,0.01-0.08,0.02-0.11,0.02c-0.03,0,0.01,0.01-0.08-0.02c-0.01-0.02-0.04-0.07-0.07-0.17c-0.04-0.12-0.05-0.28-0.04-0.49
		c0.01-0.7,0.26-1.3,0.73-1.78c0.47-0.48,1.06-0.63,1.78-0.45c1.05,0.26,1.8,0.8,2.22,1.6c0.47,1.03,0.56,1.99,0.24,2.86
		c-0.32,0.89-0.94,1.64-1.83,2.23c-0.89,0.58-1.84,0.87-2.83,0.87l-0.09,0c-1-0.02-1.96-0.4-2.84-1.13
		c-0.52-0.48-0.79-1.23-0.8-2.23c-0.01-1.05,0.26-2.13,0.81-3.24c0.55-1.12,1.25-2.02,2.07-2.68c0.78-0.62,1.56-0.9,2.27-0.83
		c0.32,0.04,0.62-0.03,0.86-0.22c0.24-0.18,0.39-0.43,0.43-0.72c0.05-0.31-0.05-0.6-0.27-0.83c-0.2-0.21-0.45-0.33-0.76-0.37
		c-1.41-0.13-2.73,0.29-3.93,1.24c-1.17,0.92-2.11,2.11-2.8,3.51c-0.42,0.89-0.73,1.8-0.89,2.7c-0.17,0.93-0.16,1.87,0.04,2.79
		C294.94,375.92,295.4,376.71,296.09,377.34z"/>
	<path d="M311.91,380.53L311.91,380.53c0.94,0.55,1.93,0.89,2.94,0.98c0.25,0.02,0.51,0.04,0.77,0.04c0.74,0,1.47-0.11,2.18-0.31
		c0.96-0.28,1.82-0.73,2.55-1.34c0.74-0.61,1.31-1.38,1.69-2.29c0.39-0.92,0.48-1.97,0.25-3.11c-0.28-1.58-1.2-2.83-2.73-3.72
		c-1.45-0.85-2.87-0.91-4.24-0.18c-1.07,0.58-1.81,1.47-2.2,2.64c-0.2,0.56-0.24,1.14-0.13,1.71c0.11,0.62,0.47,1.12,1.06,1.49
		c1.08,0.65,2.61,0.48,4.57-0.5c0.29-0.14,0.48-0.37,0.54-0.67c0.06-0.28,0.01-0.57-0.16-0.83c-0.17-0.25-0.41-0.43-0.7-0.5
		c-0.29-0.08-0.58-0.05-0.84,0.09c-0.5,0.25-0.95,0.42-1.32,0.52c-0.48,0.13-0.67,0.12-0.72,0.13c-0.1-0.01-0.13-0.02-0.13-0.02
		c-0.01-0.01-0.03-0.02-0.05-0.03c-0.01-0.02-0.02-0.07-0.02-0.18c0-0.13,0.03-0.29,0.1-0.48c0.22-0.67,0.63-1.17,1.22-1.48
		c0.59-0.33,1.19-0.29,1.84,0.09c0.92,0.56,1.49,1.29,1.66,2.18c0.16,1.12-0.05,2.07-0.6,2.81c-0.57,0.76-1.38,1.29-2.4,1.59
		c-1.05,0.3-2.07,0.29-3.04-0.02c-0.95-0.31-1.76-0.95-2.39-1.91c-0.35-0.61-0.39-1.41-0.12-2.36c0.29-1.01,0.87-1.97,1.71-2.86
		c0.85-0.91,1.78-1.57,2.76-1.96c0.93-0.37,1.74-0.41,2.41-0.13c0.3,0.13,0.6,0.15,0.88,0.04c0.28-0.1,0.5-0.3,0.62-0.56
		c0.14-0.29,0.13-0.59-0.02-0.87c-0.13-0.26-0.33-0.45-0.61-0.57c-1.3-0.54-2.69-0.52-4.12,0.04c-1.38,0.54-2.63,1.4-3.7,2.54
		c-0.66,0.73-1.22,1.51-1.64,2.32c-0.43,0.83-0.69,1.74-0.77,2.68c-0.08,0.98,0.12,1.88,0.6,2.67
		C310.19,379.18,310.96,379.97,311.91,380.53z"/>
	<path d="M321.97,381.31c-0.09,0.1-0.17,0.2-0.21,0.26c-0.13,0.17-0.22,0.31-0.28,0.45c-0.01,0.02-0.02,0.04-0.02,0.06
		c-0.03,0.13-0.04,0.26-0.03,0.36c0,0.26,0.08,0.64,0.53,0.97c0.21,0.13,0.45,0.2,0.73,0.21c0.03,0,0.1-0.01,0.13-0.02
		c0.04-0.01,0.09-0.02,0.19-0.03c0.23-0.06,0.45-0.21,0.64-0.42c0.1-0.1,0.22-0.24,0.35-0.41c0.19-0.26,0.42-0.61,0.63-0.96
		c0.21-0.22,0.7-0.66,1.45-1.32c1.36-1.16,2.69-2.03,3.94-2.57c1.64-0.69,2.82-0.66,3.49,0.09c0.3,0.35,0.48,0.92,0.51,1.7
		c0.03,0.81-0.1,1.73-0.39,2.76c-0.28,0.99-0.64,1.9-1.08,2.71c-0.43,0.79-0.85,1.38-1.2,1.69c-0.3,0.23-0.67,0.41-1.09,0.54
		c-0.41,0.12-0.79,0.16-1.15,0.09c-0.3-0.04-0.65-0.16-1.05-0.34c-0.53-0.24-0.63-0.37-0.65-0.4c-0.28-0.38-0.23-0.61-0.14-0.77
		c0.15-0.3,0.51-0.58,1.07-0.82c0.39-0.18,0.78-0.3,1.17-0.34c-0.08,0.25-0.06,0.51,0.06,0.76c0.13,0.27,0.33,0.48,0.62,0.6
		c0.28,0.12,0.57,0.14,0.85,0.04c0.28-0.1,0.49-0.29,0.59-0.56c0.03-0.05,0.07-0.1,0.1-0.17c0.05-0.1,0.1-0.19,0.12-0.23
		c0.26-0.43,0.33-0.87,0.21-1.32c-0.17-0.55-0.54-0.94-1.13-1.18c-0.35-0.14-0.77-0.21-1.24-0.21c-0.8,0.01-1.62,0.21-2.44,0.57
		c-0.96,0.43-1.64,1.01-2.04,1.73c-0.51,1-0.38,2.04,0.38,3.1c0.31,0.43,0.87,0.82,1.64,1.16c0.6,0.28,1.14,0.46,1.62,0.53
		c0.26,0.04,0.52,0.07,0.78,0.07c0.46,0,0.93-0.07,1.4-0.21c0.72-0.22,1.33-0.54,1.82-0.95c0.6-0.49,1.17-1.25,1.71-2.25
		c0.52-0.98,0.94-2.04,1.24-3.15c0.36-1.24,0.52-2.38,0.48-3.41c-0.06-1.31-0.44-2.36-1.11-3.12c-1.45-1.64-3.53-1.9-6.17-0.77
		c-0.31,0.13-0.63,0.29-0.96,0.46c0.52-0.8,1.17-1.77,1.93-2.9c0.18-0.25,0.23-0.54,0.14-0.86c-0.08-0.29-0.24-0.52-0.47-0.69
		c-0.25-0.18-0.52-0.26-0.84-0.21c-0.31,0.05-0.55,0.19-0.73,0.44c-1.24,1.85-2.18,3.26-2.78,4.21c-0.13,0.21-0.35,0.57-0.73,1.18
		c-0.34,0.55-0.6,0.98-0.78,1.25c-0.09,0.12-0.3,0.45-0.46,0.72c-0.23,0.37-0.41,0.67-0.5,0.83c-0.25,0.28-0.49,0.56-0.7,0.84
		C322.1,381.16,322.05,381.22,321.97,381.31z"/>
</g>
</svg>
